<svg width="80" height="33" viewBox="0 0 80 33" fill="none" xmlns="http://www.w3.org/2000/svg">
<path fill-rule="evenodd" clip-rule="evenodd" d="M14.8405 25.6671C15.0585 24.9688 15.2428 24.3662 15.3385 24.0472C15.9162 22.1047 17.9367 17.4543 18.2397 13.7466C18.4719 10.918 17.7081 8.62823 15.101 7.98666C12.7315 7.40357 10.3388 8.84445 8.21918 11.4409C3.6573 17.0289 0.197803 27.9037 0.00107795 31.4589C-0.0201896 31.8471 0.275782 32.1785 0.663914 32.1997C1.05027 32.221 1.38168 31.925 1.40295 31.5369C1.59258 28.1252 4.92806 17.6935 9.3074 12.3288C11.0194 10.2322 12.852 8.87989 14.766 9.35132C16.6553 9.81566 17.008 11.5808 16.8396 13.6314C16.5454 17.2398 14.5551 21.7556 13.9916 23.6466C13.6389 24.8323 12.1661 29.3162 12.1324 29.7309C12.0899 30.2502 12.4603 30.4239 12.5861 30.4717C12.6836 30.509 13.1816 30.6631 13.4918 30.1049C17.919 22.1473 30.2205 13.0005 43.3248 9.35487C56.3139 5.74116 70.1325 7.55776 77.7676 21.5819C77.9537 21.9222 78.3808 22.048 78.7211 21.8637C79.0613 21.6776 79.1872 21.2505 79.0011 20.9102C71.001 6.21612 56.5567 4.21519 42.9491 8.00081C31.4805 11.1909 20.6359 18.5105 14.8405 25.6671Z" fill="#52787A"/>
<path fill-rule="evenodd" clip-rule="evenodd" d="M77.889 20.5718C76.3559 19.9444 74.8495 19.2709 73.2668 18.7623C69.0505 17.4065 64.3823 16.8907 60.0065 17.6705C59.6237 17.7396 59.3702 18.1047 59.4376 18.4858C59.5067 18.8686 59.8718 19.122 60.2529 19.0547C64.4054 18.3121 68.836 18.8136 72.8361 20.1003C74.6474 20.6834 76.3594 21.4862 78.1264 22.1828C78.215 22.2164 78.9736 22.5426 79.1526 22.5674C79.5691 22.6276 79.78 22.3866 79.8633 22.2625C79.9342 22.1598 79.9945 22.0197 79.9998 21.8318C80.0033 21.6777 79.9413 21.3835 79.7747 21.0077C79.2448 19.8026 77.6054 17.169 77.3821 16.7082C74.8211 11.4267 73.3253 6.08326 71.6097 0.496989C71.4945 0.126579 71.1011 -0.082574 70.7306 0.0308529C70.3602 0.14428 70.1529 0.537764 70.2663 0.908173C72.0031 6.56534 73.5255 11.9744 76.1184 17.3196C76.2708 17.6368 77.2119 19.3471 77.889 20.5718Z" fill="#52787A"/>
</svg>
