<?xml version="1.0" encoding="utf-8"?>
<!-- Generator: Adobe Illustrator 26.5.0, SVG Export Plug-In . SVG Version: 6.00 Build 0)  -->
<svg version="1.1" id="Capa_1" xmlns="http://www.w3.org/2000/svg" xmlns:xlink="http://www.w3.org/1999/xlink" x="0px" y="0px"
	 viewBox="0 0 72 25" style="enable-background:new 0 0 72 25;" xml:space="preserve">
<style type="text/css">
	.st0{fill-rule:evenodd;clip-rule:evenodd;fill:#F4F2DD;}
</style>
<path class="st0" d="M29.9,14.9c0.3-0.1,0.6-0.2,0.9-0.3c1.7-0.5,3.6-1.1,5.1-2.2c1.9-1.4,2.6-3.1,2.6-4.7c0-2.3-1.7-4.6-4-6.1
	c-2.3-1.4-5.2-2-7.5-1.1c-1.6,0.6-2.9,1.9-3.7,4.2c-0.9,2.6-0.2,5.1,1.3,7.2c0.6,0.8,1.2,1.6,2,2.3c-1,0.2-2,0.4-3,0.5
	c-3.3,0.5-6.7,0.6-10.1,0.4C9.3,14.9,5.1,14,1,12.4c-0.4-0.1-0.8,0.1-1,0.4c-0.2,0.4,0,0.8,0.4,1c4.2,1.7,8.6,2.7,13.1,2.9
	c3.4,0.1,7,0.1,10.4-0.5c1.4-0.2,2.8-0.5,4.1-0.8c1.8,1.4,3.8,2.5,5.5,3.1c11.3,4.2,26.5-1.3,36.7-6.7c0.4-0.2,0.5-0.6,0.3-1
	s-0.6-0.5-1-0.3c-9.9,5.2-24.6,10.7-35.5,6.6C32.8,16.6,31.3,15.8,29.9,14.9z M28.4,13.7c0.6-0.1,1.3-0.3,1.9-0.5
	c1.5-0.5,3.4-1,4.7-2c1.4-1.1,2-2.3,2-3.5c0-1.9-1.5-3.7-3.3-4.9c-1.9-1.2-4.2-1.8-6.2-1c-1.2,0.5-2.2,1.5-2.8,3.3
	c-0.7,2.2-0.1,4.2,1.2,6C26.6,12,27.5,13,28.4,13.7z"/>
<path class="st0" d="M70.3,11.1c-0.2,0.3-0.5,0.6-0.8,0.9c-0.6,0.6-1.3,1.1-1.6,1.6c-2.1,2.9-4.6,6.4-5.7,9.8
	c-0.1,0.4,0.1,0.8,0.5,0.9s0.8-0.1,0.9-0.5c1.1-3.3,3.5-6.6,5.5-9.4c0.4-0.5,1.2-1.1,1.8-1.7c0.5-0.5,1-1.1,1.1-1.6
	c0.1-0.3,0-0.8-0.7-1.2c-1-0.5-3.6-0.9-3.9-1c-2.6-0.6-4.9-1.2-6.6-3.5c-0.2-0.3-0.7-0.4-1-0.2c-0.3,0.2-0.4,0.7-0.2,1
	c1.9,2.6,4.5,3.4,7.4,4.1c0.2,0,1.8,0.2,2.9,0.6C70.1,11,70.2,11,70.3,11.1z"/>
</svg>
